<svg xmlns="http://www.w3.org/2000/svg" version="1.1" xmlns:xlink="http://www.w3.org/1999/xlink" width="2000" height="373" viewBox="0 0 2000 373"><g transform="matrix(1,0,0,1,-1.2121212121212466,-0.46004550509937303)"><svg viewBox="0 0 396 74" data-background-color="#ffffff" preserveAspectRatio="xMidYMid meet" height="373" width="2000" xmlns="http://www.w3.org/2000/svg" xmlns:xlink="http://www.w3.org/1999/xlink"><g id="tight-bounds" transform="matrix(1,0,0,1,0.2400000000000091,0.09126908144062895)"><svg viewBox="0 0 395.52 73.81746183711873" height="73.81746183711873" width="395.52"><g><svg viewBox="0 0 395.52 73.81746183711873" height="73.81746183711873" width="395.52"><g><svg viewBox="0 0 395.52 73.81746183711873" height="73.81746183711873" width="395.52"><g><svg viewBox="0 0 537.3444635538192 100.2867223699714" height="73.81746183711873" width="395.52"><g transform="matrix(1,0,0,1,141.82446355381927,13.860176535936723)"><svg viewBox="0 0 395.52 72.56636929809795" height="72.56636929809795" width="395.52"><g id="textblocktransform"><svg viewBox="0 0 395.52 72.56636929809795" height="72.56636929809795" width="395.52" id="textblock"><g><svg viewBox="0 0 395.52 72.56636929809795" height="72.56636929809795" width="395.52"><g transform="matrix(1,0,0,1,0,0)"><svg width="395.52" viewBox="1.1 -41.5 299.97999999999996 54.5" height="72.56636929809795" data-palette-color="#001f3f"><path d="M1.1-23.35L1.1-25.7 6.75-25.7 6.75-29.3Q6.75-35.05 9.78-38.27 12.8-41.5 18.4-41.5L18.4-41.5Q21.5-41.5 23.45-40.55 25.4-39.6 25.4-38.1L25.4-38.1Q25.4-37.1 24.78-36.43 24.15-35.75 23.2-35.75L23.2-35.75Q22.6-35.75 21.93-36.13 21.25-36.5 20.15-37.4L20.15-37.4Q18.9-38.45 18.2-38.78 17.5-39.1 16.55-39.1L16.55-39.1Q13.55-39.1 12.25-36.05L12.25-36.05Q11.8-35.05 11.63-33.6 11.45-32.15 11.45-29.6L11.45-29.6 11.45-25.7 19.5-25.7 19.5-23.35 11.45-23.35 11.45-8.05Q11.45-6.2 11.68-5 11.9-3.8 12.48-3.08 13.05-2.35 14.05-2.08 15.05-1.8 16.65-1.75L16.65-1.75 16.65 0 2.45 0 2.45-1.75Q3.85-1.8 4.7-2.02 5.55-2.25 6-2.88 6.45-3.5 6.6-4.63 6.75-5.75 6.75-7.65L6.75-7.65 6.75-23.35 1.1-23.35ZM31.05-41.5L31.05-7.8Q31.05-5.9 31.2-4.75 31.35-3.6 31.82-2.95 32.3-2.3 33.17-2.05 34.05-1.8 35.5-1.75L35.5-1.75 35.5 0 21.7 0 21.7-1.75Q23.2-1.8 24.1-2.08 25-2.35 25.52-2.95 26.05-3.55 26.22-4.63 26.4-5.7 26.4-7.45L26.4-7.45 26.4-29Q26.4-31.7 26.32-33.52 26.25-35.35 26.1-36L26.1-36Q25.85-37.15 24.92-37.55 24-37.95 21.6-37.95L21.6-37.95 21.6-39.65 31.05-41.5ZM53.09-27L53.09-27Q55.95-27 58.5-25.98 61.05-24.95 62.97-23.15 64.89-21.35 66.02-18.88 67.14-16.4 67.14-13.45L67.14-13.45Q67.14-10.4 66.02-7.85 64.89-5.3 62.97-3.45 61.05-1.6 58.5-0.55 55.95 0.5 53.09 0.5L53.09 0.5Q50.3 0.5 47.77-0.53 45.24-1.55 43.34-3.4 41.45-5.25 40.34-7.83 39.24-10.4 39.24-13.45L39.24-13.45Q39.24-16.4 40.34-18.9 41.45-21.4 43.34-23.2 45.24-25 47.77-26 50.3-27 53.09-27ZM53.09-24.6L53.09-24.6Q51.24-24.6 49.72-23.8 48.2-23 47.12-21.53 46.05-20.05 45.47-17.98 44.89-15.9 44.89-13.4L44.89-13.4Q44.89-10.8 45.47-8.7 46.05-6.6 47.12-5.13 48.2-3.65 49.7-2.85 51.2-2.05 53.09-2.05L53.09-2.05Q55-2.05 56.55-2.85 58.09-3.65 59.2-5.15 60.3-6.65 60.89-8.75 61.5-10.85 61.5-13.4L61.5-13.4Q61.5-15.9 60.89-17.95 60.3-20 59.2-21.48 58.09-22.95 56.55-23.78 55-24.6 53.09-24.6ZM89.79-17.95L82.44 0.5 80.59 0.5 74.09-20.3Q73.64-21.7 73.24-22.55 72.84-23.4 72.29-23.9 71.74-24.4 70.99-24.58 70.24-24.75 69.14-24.75L69.14-24.75 69.14-26.5 82.39-26.5 82.39-24.75Q80.44-24.75 79.64-24.3 78.84-23.85 78.84-22.75L78.84-22.75Q78.84-22.25 78.99-21.58 79.14-20.9 79.39-19.9L79.39-19.9 82.79-7.95 82.99-7.95 90.34-26.5 91.89-26.5 98.54-7.95 98.74-7.95 101.74-16.05Q102.34-17.7 102.74-18.82 103.14-19.95 103.37-20.73 103.59-21.5 103.69-22 103.79-22.5 103.79-22.95L103.79-22.95Q103.79-24.05 103.14-24.4 102.49-24.75 100.44-24.75L100.44-24.75 100.44-26.5 110.44-26.5 110.44-24.75Q109.69-24.75 109.17-24.53 108.64-24.3 108.12-23.65 107.59-23 107.04-21.8 106.49-20.6 105.69-18.65L105.69-18.65 97.94 0.5 96.09 0.5 89.99-17.95 89.79-17.95ZM122.54-27L122.54-7.95Q122.54-6 122.72-4.83 122.89-3.65 123.39-2.98 123.89-2.3 124.79-2.05 125.69-1.8 127.19-1.75L127.19-1.75 127.19 0 112.84 0 112.84-1.75Q114.34-1.8 115.29-2.08 116.24-2.35 116.77-2.98 117.29-3.6 117.47-4.73 117.64-5.85 117.64-7.6L117.64-7.6 117.64-14Q117.64-16.9 117.57-18.78 117.49-20.65 117.29-21.35L117.29-21.35Q117.04-22.5 116.14-22.93 115.24-23.35 112.74-23.35L112.74-23.35 112.74-25.1 122.54-27ZM116.79-37.15L116.79-37.15Q116.79-38.45 117.69-39.35 118.59-40.25 119.89-40.25L119.89-40.25Q121.19-40.25 122.09-39.35 122.99-38.45 122.99-37.15L122.99-37.15Q122.99-35.85 122.09-34.95 121.19-34.05 119.89-34.05L119.89-34.05Q118.59-34.05 117.69-34.95 116.79-35.85 116.79-37.15ZM138.99-14.55L138.99-7.85Q138.99-5.8 139.09-4.63 139.19-3.45 139.61-2.83 140.04-2.2 140.86-2 141.69-1.8 143.14-1.7L143.14-1.7 143.14 0 130.04 0 130.04-1.7Q131.44-1.8 132.26-2 133.09-2.2 133.54-2.8 133.99-3.4 134.11-4.5 134.24-5.6 134.24-7.5L134.24-7.5 134.24-14.15Q134.24-20.1 133.94-21.4L133.94-21.4Q133.79-22.05 133.56-22.48 133.34-22.9 132.89-23.13 132.44-23.35 131.74-23.43 131.04-23.5 129.94-23.5L129.94-23.5 129.94-25.1 137.94-27 138.54-22.05 138.74-22.05Q140.64-24.4 143.19-25.7 145.74-27 148.74-27L148.74-27Q151.04-27 152.94-26.25 154.84-25.5 155.84-24.2L155.84-24.2Q156.69-23.05 157.04-21.23 157.39-19.4 157.39-16.2L157.39-16.2 157.39-7.85Q157.39-5.8 157.51-4.63 157.64-3.45 158.04-2.83 158.44-2.2 159.26-2 160.09-1.8 161.44-1.7L161.44-1.7 161.44 0 148.49 0 148.49-1.7Q149.89-1.75 150.71-1.98 151.54-2.2 151.96-2.8 152.39-3.4 152.51-4.53 152.64-5.65 152.64-7.5L152.64-7.5 152.64-14.1Q152.64-16.95 152.34-18.9 152.04-20.85 151.36-22.05 150.69-23.25 149.59-23.78 148.49-24.3 146.94-24.3L146.94-24.3Q144.69-24.3 142.81-23.13 140.94-21.95 139.89-19.9L139.89-19.9Q139.64-19.4 139.46-18.95 139.29-18.5 139.19-17.9 139.09-17.3 139.04-16.53 138.99-15.75 138.99-14.55L138.99-14.55ZM185.84-11.6L185.84-16Q185.84-17.85 185.29-19.43 184.74-21 183.74-22.13 182.74-23.25 181.39-23.9 180.04-24.55 178.49-24.55L178.49-24.55Q176.69-24.55 175.26-23.75 173.84-22.95 172.81-21.48 171.79-20 171.24-17.9 170.69-15.8 170.69-13.25L170.69-13.25Q170.69-10.65 171.24-8.55 171.79-6.45 172.81-4.98 173.84-3.5 175.29-2.7 176.74-1.9 178.54-1.9L178.54-1.9Q180.59-1.9 182.24-2.85 183.89-3.8 184.74-5.55L184.74-5.55Q185.84-7.75 185.84-11.6L185.84-11.6ZM185.99 4.85L185.99-3.6 185.79-3.6Q184.04-1.4 182.16-0.45 180.29 0.5 177.64 0.5L177.64 0.5Q174.84 0.5 172.54-0.48 170.24-1.45 168.56-3.23 166.89-5 165.96-7.48 165.04-9.95 165.04-12.9L165.04-12.9Q165.04-15.85 166.04-18.43 167.04-21 168.79-22.9 170.54-24.8 172.89-25.9 175.24-27 177.94-27L177.94-27Q180.64-27 183.14-25.9 185.64-24.8 187.29-22.95L187.29-22.95 189.49-26.4 190.74-26.4 190.74 4.5Q190.74 6.6 190.86 7.8 190.99 9 191.51 9.65 192.04 10.3 193.06 10.5 194.09 10.7 195.89 10.75L195.89 10.75 195.89 12.5 180.64 12.5 180.64 10.75Q182.24 10.7 183.26 10.43 184.29 10.15 184.89 9.47 185.49 8.8 185.74 7.68 185.99 6.55 185.99 4.85L185.99 4.85ZM218.43-13.6L218.43-18.5Q218.43-20.55 218.33-21.73 218.23-22.9 217.81-23.53 217.38-24.15 216.56-24.38 215.73-24.6 214.28-24.75L214.28-24.75 214.28-26.5 223.33-26.5 223.33-11.15Q223.33-8.3 223.41-6.5 223.48-4.7 223.63-3.8L223.63-3.8Q223.73-3.15 223.96-2.78 224.18-2.4 224.63-2.18 225.08-1.95 225.81-1.88 226.53-1.8 227.68-1.8L227.68-1.8 227.68-0.05 219.43 0.55 218.88-5.45 218.68-5.45Q216.78-2.35 214.31-0.93 211.83 0.5 209.13 0.5L209.13 0.5Q207.03 0.5 205.06-0.3 203.08-1.1 202.08-2.45L202.08-2.45Q201.23-3.55 200.86-5.5 200.48-7.45 200.48-10.55L200.48-10.55 200.48-18.5Q200.48-20.55 200.38-21.73 200.28-22.9 199.86-23.53 199.43-24.15 198.61-24.38 197.78-24.6 196.33-24.75L196.33-24.75 196.33-26.5 205.38-26.5 205.38-12.85Q205.38-7.4 206.66-4.95 207.93-2.5 210.73-2.5L210.73-2.5Q215.13-2.5 217.58-8.25L217.58-8.25Q217.83-8.85 217.98-9.35 218.13-9.85 218.23-10.45 218.33-11.05 218.38-11.8 218.43-12.55 218.43-13.6L218.43-13.6ZM240.18-27L240.18-7.95Q240.18-6 240.36-4.83 240.53-3.65 241.03-2.98 241.53-2.3 242.43-2.05 243.33-1.8 244.83-1.75L244.83-1.75 244.83 0 230.48 0 230.48-1.75Q231.98-1.8 232.93-2.08 233.88-2.35 234.41-2.98 234.93-3.6 235.11-4.73 235.28-5.85 235.28-7.6L235.28-7.6 235.28-14Q235.28-16.9 235.21-18.78 235.13-20.65 234.93-21.35L234.93-21.35Q234.68-22.5 233.78-22.93 232.88-23.35 230.38-23.35L230.38-23.35 230.38-25.1 240.18-27ZM234.43-37.15L234.43-37.15Q234.43-38.45 235.33-39.35 236.23-40.25 237.53-40.25L237.53-40.25Q238.83-40.25 239.73-39.35 240.63-38.45 240.63-37.15L240.63-37.15Q240.63-35.85 239.73-34.95 238.83-34.05 237.53-34.05L237.53-34.05Q236.23-34.05 235.33-34.95 234.43-35.85 234.43-37.15ZM256.93-9.65L256.93-7.95Q256.93-5.9 257.03-4.7 257.13-3.5 257.55-2.88 257.98-2.25 258.78-2.05 259.58-1.85 261.03-1.75L261.03-1.75 261.03 0 247.73 0 247.73-1.75Q249.18-1.8 250.03-2.02 250.88-2.25 251.33-2.85 251.78-3.45 251.9-4.58 252.03-5.7 252.03-7.6L252.03-7.6 252.03-13.45Q252.03-16.85 251.95-18.75 251.88-20.65 251.45-21.55 251.03-22.45 250.13-22.63 249.23-22.8 247.63-22.8L247.63-22.8 247.63-24.55 256.38-26.45 257.08-20.25 257.28-20.25Q257.93-21.75 258.9-23 259.88-24.25 261.03-25.13 262.18-26 263.43-26.5 264.68-27 265.98-27L265.98-27Q267.58-27 268.5-26.23 269.43-25.45 269.43-24.15L269.43-24.15Q269.43-22.95 268.68-22.28 267.93-21.6 266.53-21.6L266.53-21.6Q265.73-21.6 265.18-21.8 264.63-22 264.2-22.23 263.78-22.45 263.4-22.65 263.03-22.85 262.58-22.85L262.58-22.85Q261.23-22.85 259.88-21.13 258.53-19.4 257.78-16.75L257.78-16.75Q257.38-15.3 257.15-13.48 256.93-11.65 256.93-9.65L256.93-9.65ZM294.63-16.4L283.73 7.85Q281.43 13 276.58 13L276.58 13Q273.43 13 273.43 10.65L273.43 10.65Q273.43 9.4 274.3 8.83 275.18 8.25 277.53 7.85L277.53 7.85Q278.58 7.7 279.33 7.43 280.08 7.15 280.68 6.73 281.28 6.3 281.75 5.65 282.23 5 282.68 4.05L282.68 4.05 284.43 0.55 274.83-20.3Q274.18-21.7 273.7-22.53 273.23-23.35 272.7-23.83 272.18-24.3 271.53-24.48 270.88-24.65 269.88-24.75L269.88-24.75 269.88-26.5 283.13-26.5 283.13-24.75Q279.78-24.75 279.78-23.1L279.78-23.1Q279.78-22.45 280.18-21.05 280.58-19.65 281.18-18.2L281.18-18.2 286.68-4.9 286.93-4.9 291.48-16.15Q292.13-17.8 292.55-18.85 292.98-19.9 293.2-20.58 293.43-21.25 293.5-21.7 293.58-22.15 293.58-22.55L293.58-22.55Q293.58-23.85 292.85-24.3 292.13-24.75 290.08-24.75L290.08-24.75 290.08-26.5 301.08-26.5 301.08-24.75Q300.13-24.75 299.48-24.5 298.83-24.25 298.15-23.38 297.48-22.5 296.65-20.85 295.83-19.2 294.63-16.4L294.63-16.4Z" opacity="1" transform="matrix(1,0,0,1,0,0)" fill="#ffffff" class="wordmark-text-0" data-fill-palette-color="primary" id="text-0"></path></svg></g></svg></g></svg></g></svg></g><g><svg viewBox="0 0 124.69328535540149 100.2867223699714" height="100.2867223699714" width="124.69328535540149"><g><svg xmlns="http://www.w3.org/2000/svg" xmlns:xlink="http://www.w3.org/1999/xlink" version="1.1" x="0" y="0" viewBox="0 9.786 100.00034525290005 80.42699999999999" enable-background="new 0 0 100 100" xml:space="preserve" id="icon-0" width="124.69328535540149" height="100.2867223699714" class="icon-icon-0" data-fill-palette-color="accent"><path d="M49.942 52.994L90.595 51.529C88.068 47.352 87.436 43.698 82.606 43.068 75.377 42.128 68.148 41.185 60.918 40.242L18.843 34.762C20.101 36.792 39.724 53.361 49.942 52.994" fill="#ffffff" data-fill-palette-color="accent"></path><path d="M0 9.786C4.391 17.043 26.615 32.858 32.953 33.672 50.283 35.903 67.61 38.132 84.939 40.36 81.546 34.753 80.759 31.01 74.627 29.401L47.91 22.378C31.94 18.182 15.97 13.984 0 9.786" fill="#ffffff" data-fill-palette-color="accent"></path><path d="M63.108 66.207L94.349 59.547C92.321 56.201 92.315 54.188 88.522 54.358 82.364 54.631 76.208 54.907 70.051 55.18 58.708 55.686 47.365 56.194 36.023 56.698 37.298 58.064 54.94 67.947 63.108 66.207" fill="#ffffff" data-fill-palette-color="accent"></path><path d="M87.682 90.213C93.407 86.494 94.944 82.492 98.201 76.406 101.852 69.582 99.458 68.562 95.38 61.81 94.963 61.122 89.538 62.042 88.927 62.714 88.182 63.532 88.679 68.169 88.633 69.21z" fill="#ffffff" data-fill-palette-color="accent"></path><path d="M86.35 63.447C82.555 64.256 77.746 63.638 76.778 67.676L72.658 84.887C81.904 82.678 86.028 71.582 86.35 63.447" fill="#ffffff" data-fill-palette-color="accent"></path><path d="M74.666 66.121C65.518 68.074 65.71 70.732 61.787 79.301 68.007 78.711 73.811 71.941 74.666 66.121" fill="#ffffff" data-fill-palette-color="accent"></path></svg></g></svg></g></svg></g></svg></g></svg></g><defs></defs></svg><rect width="395.52" height="73.81746183711873" fill="none" stroke="none" visibility="hidden"></rect></g></svg></g></svg>