<svg xmlns="http://www.w3.org/2000/svg" version="1.1" xmlns:xlink="http://www.w3.org/1999/xlink" xmlns:svgjs="http://svgjs.dev/svgjs" width="2000" height="1500" viewBox="0 0 2000 1500"><rect width="2000" height="1500" fill="#000000"></rect><g transform="matrix(0.75,0,0,0.75,249.090909090909,315.6102156047218)"><svg viewBox="0 0 396 229" data-background-color="#ffffff" preserveAspectRatio="xMidYMid meet" height="1156" width="2000" xmlns="http://www.w3.org/2000/svg" xmlns:xlink="http://www.w3.org/1999/xlink"><g id="tight-bounds" transform="matrix(1,0,0,1,0.2400000000000091,0.29933809693221747)"><svg viewBox="0 0 395.52 228.40132380613557" height="228.40132380613557" width="395.52"><g><svg viewBox="0 0 395.52 228.40132380613557" height="228.40132380613557" width="395.52"><g><svg viewBox="0 0 395.52 228.40132380613557" height="228.40132380613557" width="395.52"><g transform="matrix(1,0,0,1,0,141.1611811188585)"><svg viewBox="0 0 395.52 87.24014268727706" height="87.24014268727706" width="395.52"><g id="textblocktransform"><svg viewBox="0 0 395.52 87.24014268727706" height="87.24014268727706" width="395.52" id="textblock"><g><svg viewBox="0 0 395.52 87.24014268727706" height="87.24014268727706" width="395.52"><g transform="matrix(1,0,0,1,0,0)"><svg width="395.52" viewBox="1.35 -36.5 168.03 37.1" height="87.24014268727706" data-palette-color="#3d9970"><path d="M1.35-22.8L4.75-22.8 4.75-28.85Q4.75-32.55 6.5-34.52 8.25-36.5 11.08-36.5 13.9-36.5 17.1-35L17.1-35 15.65-32Q13.45-32.9 11.85-32.9L11.85-32.9Q8.85-32.9 8.85-28.9L8.85-28.9 8.85-22.8 15.05-22.8 15.05-19.65 8.85-19.65 8.85 0 4.75 0 4.75-19.65 1.35-19.65 1.35-22.8ZM18.9 0L18.9-35.9 23-35.9 23 0 18.9 0ZM39.14-2.9L39.14-2.9Q42.75-2.9 46.34-5.05L46.34-5.05 47.8-2.05Q43.59 0.6 38.82 0.6 34.05 0.6 31.25-2.43 28.45-5.45 28.45-11.15 28.45-16.85 31.34-20.13 34.24-23.4 39.05-23.4L39.05-23.4Q43.39-23.4 45.89-20.7L45.89-20.7Q46.95-19.6 47.67-17.5 48.39-15.4 48.39-12.55L48.39-12.55 46.84-10.8 32.7-10.8Q32.84-2.9 39.14-2.9ZM44.2-13.95Q44.2-16.75 42.75-18.45 41.3-20.15 38.92-20.15 36.55-20.15 34.89-18.48 33.24-16.8 32.89-13.95L32.89-13.95 44.2-13.95ZM58.69-11.9L50.74-22.8 55.64-22.8 61.39-14.9 66.94-22.8 71.74-22.8 63.69-11.7 72.29 0 67.39 0 60.99-8.75 54.84 0 50.04 0 58.69-11.9ZM88.39-16.25L83.44 0 78.74 0 72.54-22.8 76.84-22.8 80.99-4.55 81.19-4.55 86.54-22.8 90.59-22.8 95.99-4.55 96.19-4.55 100.34-22.8 104.64-22.8 98.44 0 93.74 0 88.64-16.25 88.39-16.25ZM117.84-20.15L117.84-20.15Q115.94-20.15 114.56-19.3 113.19-18.45 112.54-17.1L112.54-17.1Q111.34-14.55 111.34-11.65L111.34-11.65Q111.34-2.65 117.59-2.65L117.59-2.65Q119.49-2.65 120.84-3.5 122.19-4.35 122.89-5.7L122.89-5.7Q124.09-8.2 124.09-11.15L124.09-11.15Q124.09-20.15 117.84-20.15ZM117.84-23.4L117.84-23.4Q123.39-23.4 125.94-19.95 128.49-16.5 128.49-10.95L128.49-10.95Q128.49-6.95 126.39-3.55L126.39-3.55Q125.24-1.7 122.94-0.55 120.64 0.6 117.44 0.6L117.44 0.6Q111.94 0.6 109.44-2.7 106.94-6 106.94-11.55L106.94-11.55Q106.94-14.8 107.96-17.05 108.99-19.3 110.14-20.53 111.29-21.75 113.29-22.58 115.29-23.4 117.84-23.4ZM134.14 0L134.14-22.8 136.84-22.8 138.09-18.8 138.29-18.8Q141.04-22.35 145.84-23.1L145.84-23.1 146.29-19.15Q143.94-19 141.74-17.95 139.54-16.9 138.39-15.15L138.39-15.15 138.39 0 134.14 0ZM153.78-10.3L153.78 0 149.68 0 149.68-35.9 153.78-35.9 153.78-14.7 162.68-22.8 168.33-22.8 158.28-14.15 169.38 0 163.98 0 155.18-11.5 153.78-10.3Z" opacity="1" transform="matrix(1,0,0,1,0,0)" fill="#ffffff" class="wordmark-text-0" data-fill-palette-color="primary" id="text-0"></path></svg></g></svg></g></svg></g></svg></g><g transform="matrix(1,0,0,1,122.15693641758068,0)"><svg viewBox="0 0 151.20612716483862 120.5658771938169" height="120.5658771938169" width="151.20612716483862"><g><svg xmlns="http://www.w3.org/2000/svg" xmlns:xlink="http://www.w3.org/1999/xlink" version="1.1" x="0" y="0" viewBox="3.9453686266498362 13.278037143017489 92.10918294323862 73.44427535698252" enable-background="new 0 0 100 100" xml:space="preserve" height="120.5658771938169" width="151.20612716483862" class="icon-icon-0" data-fill-palette-color="accent" id="icon-0"><path d="M31.462 57.19C31.694 59.058 32.548 61.309 33.777 63.729 43.838 68.951 56.477 69.005 66.593 63.894 67.834 61.476 68.706 59.22 68.97 57.338 63.289 60.401 56.819 61.934 50.347 61.934 43.776 61.935 37.207 60.351 31.462 57.19" fill="#ffffff" data-fill-palette-color="accent"></path><path d="M36.524 68.511A111 111 0 0 0 40.689 74.614 37.24 37.24 0 0 0 59.71 74.696 111 111 0 0 0 63.863 68.625C59.547 70.176 54.948 70.954 50.347 70.954 45.637 70.953 40.929 70.135 36.524 68.511" fill="#ffffff" data-fill-palette-color="accent"></path><path d="M50.348 50.276C47.66 50.276 44.975 50 42.345 49.469A230 230 0 0 1 31.912 51.133C31.803 51.587 31.705 53.041 31.631 53.492 42.724 60.349 57.708 60.394 68.851 53.625 68.776 53.15 68.679 51.674 68.566 51.196A228 228 0 0 1 58.013 49.533 40.5 40.5 0 0 1 50.348 50.276" fill="#ffffff" data-fill-palette-color="accent"></path><path d="M63.56 13.631A10 10 0 0 0 62.64 13.353 16 16 0 0 0 61.387 13.287C60.911 13.237 60.43 13.408 59.899 13.508 59.35 13.582 58.868 13.894 58.337 14.143 57.819 14.419 57.392 14.851 56.931 15.235 56.54 15.689 56.096 16.101 55.747 16.581A16.2 16.2 0 0 0 53.93 19.481C53.748 19.836 53.593 20.186 53.45 20.53A9.4 9.4 0 0 0 47.271 20.722 15 15 0 0 0 46.711 19.482 16.3 16.3 0 0 0 44.894 16.582C44.545 16.102 44.101 15.689 43.71 15.236 43.249 14.852 42.822 14.42 42.304 14.144 41.773 13.895 41.29 13.583 40.742 13.509 40.21 13.409 39.729 13.238 39.253 13.288 38.786 13.29 38.364 13.324 38.001 13.354 37.638 13.444 37.329 13.545 37.081 13.632A7 7 0 0 0 36.324 13.94L36.354 14.137S36.65 14.236 37.128 14.348C37.366 14.408 37.65 14.459 37.964 14.523 38.276 14.635 38.614 14.761 38.978 14.864 39.163 14.905 39.347 14.972 39.526 15.079L40.093 15.331C40.49 15.467 40.848 15.76 41.264 15.948 41.68 16.145 42.065 16.448 42.513 16.677 42.907 16.989 43.335 17.284 43.708 17.655A15 15 0 0 1 45.709 20.064C45.965 20.409 46.165 20.772 46.379 21.114 43.299 22.669 41.182 25.853 41.182 29.539A9.43 9.43 0 0 0 45.329 37.356C43.084 37.988 41.044 39.084 39.266 40.507A289 289 0 0 1 46.325 47.793C48.745 48.055 51.191 48.072 53.616 47.86A291 291 0 0 1 60.943 40.305 17.2 17.2 0 0 0 55.661 37.513C58.304 35.84 60.064 32.898 60.064 29.539 60.064 25.67 57.733 22.349 54.402 20.891 54.567 20.616 54.732 20.335 54.933 20.064A14.8 14.8 0 0 1 56.935 17.655C57.307 17.284 57.736 16.988 58.129 16.677 58.577 16.448 58.963 16.146 59.378 15.948 59.794 15.76 60.151 15.467 60.55 15.331L61.116 15.079C61.296 14.972 61.479 14.905 61.664 14.864 62.028 14.761 62.367 14.635 62.679 14.523 62.993 14.459 63.277 14.408 63.515 14.348 63.993 14.236 64.289 14.137 64.289 14.137L64.318 13.94A6 6 0 0 0 63.56 13.631" fill="#ffffff" data-fill-palette-color="accent"></path><path d="M50.229 86.719C50.243 86.728 50.242 86.718 50.229 86.697 50.216 86.718 50.215 86.727 50.229 86.719" fill="#ffffff" data-fill-palette-color="accent"></path><path d="M50.348 79.151C48.116 79.151 45.886 78.962 43.686 78.598 47.151 83.066 50.043 86.384 50.229 86.696 50.413 86.385 53.287 83.091 56.736 78.643 54.625 78.979 52.486 79.151 50.348 79.151" fill="#ffffff" data-fill-palette-color="accent"></path><path d="M95.257 34.649L95.244 34.604C93.915 29.634 89.935 26.669 84.599 26.668 82.966 26.668 81.264 26.952 79.543 27.512 75.132 28.947 67.339 35.587 56.378 47.25L56.316 47.315 56.41 47.333C60.773 48.161 72.367 50.359 80.596 50.359 83.266 50.359 85.335 50.126 86.748 49.667 90.682 48.388 93.644 46.01 95.091 42.974 96.311 40.414 96.373 37.551 95.274 34.696z" fill="#ffffff" data-fill-palette-color="accent"></path><path d="M43.617 47.246C32.657 35.584 24.865 28.945 20.456 27.512 18.735 26.952 17.034 26.668 15.4 26.668 10.064 26.668 6.084 29.634 4.755 34.604L4.742 34.649 4.725 34.694C3.626 37.55 3.69 40.414 4.91 42.974 6.356 46.011 9.318 48.387 13.252 49.666 14.665 50.125 16.735 50.358 19.405 50.358 27.634 50.358 39.227 48.16 43.591 47.332L43.683 47.314z" fill="#ffffff" data-fill-palette-color="accent"></path></svg></g></svg></g><g></g></svg></g></svg></g><defs></defs></svg><rect width="395.52" height="228.40132380613557" fill="none" stroke="none" visibility="hidden"></rect></g></svg></g></svg>